<?xml version="1.0" encoding="UTF-8"?>
<svg id="Layer_1" data-name="Layer 1" xmlns="http://www.w3.org/2000/svg" viewBox="0 0 501.33 512">
  <defs>
    <style>
      .cls-1 {
        fill: #fff;
      }
    </style>
  </defs>
  <g>
    <path class="cls-1" d="M38.39,256c0,119.51,95.21,216.79,212.27,216.79s212.27-97.28,212.27-216.79S367.73,39.21,250.67,39.21,38.39,136.49,38.39,256Zm406.48,0c0,109.57-87.17,198.72-194.21,198.72S56.46,365.57,56.46,256,143.54,57.28,250.67,57.28s194.21,89.16,194.21,198.72Z"/>
    <path class="cls-1" d="M243.44,160.07l-113,153.83c-3.07,3.97-2.35,9.58,1.63,12.65,3.97,3.07,9.58,2.35,12.65-1.63,.09-.09,.18-.27,.27-.36l105.69-143.89,105.59,143.89c2.98,4.06,8.58,4.88,12.65,1.9,4.06-2.98,4.88-8.58,1.9-12.65l-112.82-153.83c-2.98-4.06-8.58-4.88-12.65-1.9-.72,.63-1.35,1.27-1.9,1.99Z"/>
  </g>
  <g>
    <path class="cls-1" d="M0,256c0,141.12,112.43,256,250.67,256s250.67-114.88,250.67-256S388.91,0,250.67,0,0,114.88,0,256Zm480,0c0,129.39-102.93,234.67-229.33,234.67S21.33,385.39,21.33,256,124.16,21.33,250.67,21.33s229.33,105.28,229.33,234.67Z"/>
    <path class="cls-1" d="M242.13,142.72L108.69,324.37c-3.63,4.69-2.77,11.31,1.92,14.93,4.69,3.63,11.31,2.77,14.93-1.92,.11-.11,.21-.32,.32-.43l124.8-169.92,124.69,169.92c3.52,4.8,10.13,5.76,14.93,2.24,4.8-3.52,5.76-10.13,2.24-14.93l-133.23-181.65c-3.52-4.8-10.13-5.76-14.93-2.24-.85,.75-1.6,1.49-2.24,2.35Z"/>
  </g>
  <g>
    <path d="M19.1,256c0,130.37,103.86,236.5,231.57,236.5s231.57-106.13,231.57-236.5S378.38,19.5,250.67,19.5,19.1,125.63,19.1,256Zm443.43,0c0,119.53-95.09,216.79-211.86,216.79S38.8,375.53,38.8,256,133.8,39.21,250.67,39.21s211.86,97.26,211.86,216.79Z"/>
    <path d="M242.78,151.35l-123.27,167.81c-3.35,4.34-2.56,10.45,1.77,13.8,4.34,3.35,10.45,2.56,13.8-1.77,.1-.1,.2-.3,.3-.39l115.29-156.97,115.19,156.98c3.25,4.43,9.36,5.32,13.8,2.07,4.43-3.25,5.32-9.36,2.07-13.8l-123.08-167.82c-3.25-4.43-9.36-5.32-13.8-2.07-.79,.69-1.48,1.38-2.07,2.17Z"/>
  </g>
</svg>